<svg width="52" height="39" viewBox="0 0 52 39" fill="none" xmlns="http://www.w3.org/2000/svg">
<path d="M48.5149 11.588L48.3197 11.4318L48.1635 11.627L44.5376 16.1592C44.0166 13.3566 42.8639 10.6934 41.149 8.37911C38.7421 5.13122 35.3553 2.74278 31.4876 1.56622C27.6199 0.389657 23.4766 0.48736 19.6689 1.84459L19.6688 1.8446C16.9499 2.81409 14.5049 4.38901 12.5091 6.43254L12.509 6.43259C11.7099 7.25124 10.9828 8.14496 10.339 9.1052L10.1997 9.31284L10.4074 9.45206L13.2171 11.3359L13.4248 11.4752L13.564 11.2675C15.3513 8.60112 17.9492 6.5805 20.9727 5.50246C23.9964 4.42478 27.2864 4.34726 30.3574 5.28153L30.3574 5.28154C33.4284 6.21548 36.1177 8.11197 38.0289 10.6912L38.0289 10.6912C39.5345 12.7226 40.4942 15.0928 40.8338 17.5765L33.8423 12.9157L33.6343 12.7771L33.4956 12.9851L31.6192 15.7995L31.4805 16.0076L31.6885 16.1462L41.8368 22.9118L41.9621 22.7239L41.8368 22.9118L43.1273 23.772L43.318 23.8991L43.4612 23.7201L44.4297 22.5095L51.1952 14.0526L51.3514 13.8574L51.1562 13.7012L48.5149 11.588ZM0.804784 25.158L0.648595 25.3533L0.843841 25.5094L3.48534 27.6223L3.68055 27.7785L3.83671 27.5833L7.46255 23.0511C7.9835 25.8537 9.13619 28.5168 10.8511 30.8311C13.2577 34.079 16.6448 36.4675 20.5125 37.644C24.3802 38.8206 28.5232 38.7229 32.3313 37.3657L32.3313 37.3657C35.0502 36.3962 37.4952 34.8216 39.4911 32.7777L39.4911 32.7777C40.2885 31.9607 41.0143 31.0691 41.6571 30.1112L41.6575 30.1106L41.6616 30.1045L41.7998 29.897L41.5927 29.7582L38.783 27.8743L38.5921 27.7463L38.4485 27.9259L38.4445 27.931L38.4379 27.9391L38.4321 27.9478C36.6448 30.6115 34.0489 32.6305 31.0274 33.7078C28.0037 34.7855 24.7138 34.863 21.6428 33.9287L21.57 34.1679L21.6427 33.9287C18.5718 32.9948 15.8824 31.0983 13.9709 28.519C12.4656 26.4877 11.5059 24.1175 11.1664 21.6338L18.1575 26.2945L18.3655 26.4332L18.5042 26.2252L20.3806 23.4107L20.5193 23.2027L20.3113 23.064L10.163 16.2985L10.163 16.2985L8.87282 15.4383L8.68207 15.3111L8.53889 15.4902L7.57044 16.7011L7.57041 16.7012L0.804784 25.158Z" fill="#2B2B2B" stroke="#2B2B2B" stroke-width="0.5"/>
</svg>
