<svg width="62" height="41" viewBox="0 0 62 41" fill="none" xmlns="http://www.w3.org/2000/svg">
<path fill-rule="evenodd" clip-rule="evenodd" d="M48.2913 35.5146C48.1106 35.8158 47.7851 36.0001 47.4338 36.0001H6C5.44772 36.0001 5 35.5524 5 35.0001V12.7742C5 12.2219 5.44772 11.7742 6 11.7742H25.5982C26.0013 11.7742 26.365 11.5321 26.5207 11.1603L28.842 5.61393C28.9976 5.24206 29.3613 5 29.7644 5H47C47.5523 5 48 5.44772 48 6V20.0001C48 20.5524 48.4477 21.0001 49 21.0001H55.2338C56.0111 21.0001 56.4912 21.8481 56.0913 22.5146L48.2913 35.5146ZM0 35.0001V12.7742C0 9.46049 2.68629 6.77419 6 6.77419H22.9361L24.2296 3.68355C25.1634 1.45233 27.3457 0 29.7644 0H47C50.3137 0 53 2.68629 53 6V16.0001H55.2338C59.8976 16.0001 62.7783 21.0879 60.3788 25.0871L52.5788 38.0871C51.4944 39.8943 49.5414 41.0001 47.4338 41.0001H6C2.68629 41.0001 0 38.3138 0 35.0001Z" fill="#2B2B2B"/>
<path fill-rule="evenodd" clip-rule="evenodd" d="M52.497 38.2534C51.3921 39.9661 49.4933 41.0008 47.4551 41.0008H6.87733C2.07452 41.0008 -0.781635 35.6388 1.89808 31.6531L6.04746 34.4429C5.60084 35.1072 6.07686 36.0008 6.87733 36.0008H47.4551C47.7948 36.0008 48.1112 35.8284 48.2954 35.5429L56.5052 22.8164C56.9345 22.1509 56.4568 21.2743 55.6649 21.2743L15.4338 21.2743C15.1008 21.2743 14.7897 21.44 14.6039 21.7163L6.04746 34.4429L1.89808 31.6531L10.4545 18.9266C11.5692 17.2687 13.436 16.2743 15.4338 16.2743L55.6649 16.2743C60.4161 16.2743 63.2824 21.5342 60.7068 25.5268L52.497 38.2534Z" fill="#2B2B2B"/>
</svg>
