<svg width="61" height="58" viewBox="0 0 61 58" fill="none" xmlns="http://www.w3.org/2000/svg">
<path fill-rule="evenodd" clip-rule="evenodd" d="M13 14.5H33V19.5H13V14.5Z" fill="#2B2B2B"/>
<path fill-rule="evenodd" clip-rule="evenodd" d="M13 26.5H33V31.5H13V26.5Z" fill="#2B2B2B"/>
<path fill-rule="evenodd" clip-rule="evenodd" d="M13 38.5H28.5V43.5H13V38.5Z" fill="#2B2B2B"/>
<path fill-rule="evenodd" clip-rule="evenodd" d="M0.5 4C0.5 2.06701 2.067 0.5 4 0.5H43C44.933 0.5 46.5 2.067 46.5 4V39H41.5V5.5H5.5V52.5H37.5V57.5H4C2.067 57.5 0.5 55.933 0.5 54V4Z" fill="#2B2B2B"/>
<path fill-rule="evenodd" clip-rule="evenodd" d="M44.7548 46.5194L56.6198 29.5014L60.7213 32.361L47.9985 50.6095C46.8929 52.1952 44.7113 52.5844 43.1257 51.4789L32.5702 44.1196L35.4298 40.018L44.7548 46.5194Z" fill="#2B2B2B"/>
</svg>
