<svg width="35" height="38" viewBox="0 0 35 38" fill="none" xmlns="http://www.w3.org/2000/svg">
<path d="M21.0508 13.6789C20.9876 13.5708 20.9164 13.4695 20.8464 13.3777C20.0849 12.3786 19.3183 10.9445 19.0547 9.8288C18.9175 9.24821 18.9615 8.93949 19.0116 8.82911C19.0236 8.80271 19.0291 8.79972 19.0365 8.79573C19.0372 8.79537 19.0378 8.795 19.0385 8.79461C19.0586 8.78334 19.1463 8.74242 19.3607 8.74242C20.0307 8.74242 20.7595 9.13945 21.5137 9.91971C22.2522 10.6837 22.8888 11.6877 23.3653 12.591C23.5176 12.8798 23.6495 13.1487 23.7868 13.4285C23.8879 13.6344 23.9918 13.8462 24.1088 14.0761C24.2062 14.2673 24.2941 14.5608 24.3808 14.9804C24.433 15.2324 24.4733 15.4662 24.5167 15.7171C24.5496 15.9075 24.5842 16.1078 24.627 16.3336C24.7905 17.1966 24.8054 18.2471 24.5666 18.8651C24.5385 18.938 24.5133 18.9644 24.5059 18.9707M21.0508 13.6789L24.5075 18.9699C24.5074 18.9699 24.5069 18.9701 24.5059 18.9707M21.0508 13.6789C21.4122 14.2971 21.6174 14.6912 21.74 14.962C21.8904 15.2939 22.0742 15.6185 22.2843 15.9775C22.3128 16.0262 22.3419 16.0758 22.3715 16.1261C22.5528 16.4345 22.7519 16.7733 22.9307 17.1238C23.1966 17.6455 23.5061 18.1715 23.8547 18.6019C24.0776 18.8771 24.3288 18.9701 24.4518 18.9757C24.485 18.9772 24.5007 18.9728 24.5057 18.9708M21.0508 13.6789L24.5057 18.9708M24.5059 18.9707C24.5058 18.9707 24.5057 18.9708 24.5057 18.9708M24.5059 18.9707L24.5057 18.9708M24.5057 18.9708C24.5056 18.9709 24.5055 18.9709 24.5054 18.971L24.5057 18.9708ZM17.5 34.9845C9.21642 34.9845 3.15625 29.912 3.15625 24.2973C3.15625 22.0305 4.05581 19.2556 5.59739 16.2331C7.12117 13.2454 9.17706 10.1975 11.2719 7.43644C11.3347 7.35367 11.3975 7.27015 11.4603 7.18594C13.1041 4.98143 15.2748 3.74298 17.5588 3.69265C19.8473 3.64221 22.0533 4.7891 23.75 6.95868C25.9054 9.71466 27.9171 12.6968 29.3941 15.6468C30.8644 18.5833 31.8437 21.5644 31.8437 24.2973C31.8437 29.912 25.7836 34.9845 17.5 34.9845ZM33.6562 24.2973C33.6562 15.4057 27.0621 7.86981 22.2432 2.88222C22.0443 2.67637 21.7703 2.46302 21.4308 2.24956C19.0125 0.729147 15.954 0.700114 13.5796 2.23514C13.252 2.44689 12.9926 2.65795 12.8079 2.86072C10.4441 5.45625 7.56357 8.83251 5.27666 12.5778C2.98257 16.3348 1.34375 20.3704 1.34375 24.2973C1.34375 27.5447 3.06189 30.5541 5.9763 32.7836C8.89165 35.0139 12.9626 36.422 17.5 36.422C22.0374 36.422 26.1083 35.0139 29.0237 32.7836C31.9381 30.5541 33.6562 27.5447 33.6562 24.2973Z" fill="#2B2B2B" stroke="#2B2B2B" stroke-width="2"/>
<path d="M26.6947 22.159C26.8929 22.8179 26.5641 23.4522 26.0768 23.6368C25.5896 23.8214 24.9856 23.5406 24.7874 22.8817C24.6974 22.5824 24.7629 22.4523 24.8388 22.361C24.9555 22.2205 25.1875 22.0788 25.5652 21.9357C25.9429 21.7926 26.2039 21.7474 26.3727 21.7798C26.4823 21.8008 26.6047 21.8597 26.6947 22.159Z" fill="#2B2B2B" stroke="#2B2B2B"/>
</svg>
