<svg width="61" height="56" viewBox="0 0 61 56" fill="none" xmlns="http://www.w3.org/2000/svg">
<path d="M17 28.5C15.067 28.5 13.5 30.067 13.5 32V50C13.5 51.933 15.067 53.5 17 53.5H44C45.933 53.5 47.5 51.933 47.5 50V32C47.5 30.067 45.933 28.5 44 28.5H17Z" stroke="#2B2B2B" stroke-width="5"/>
<path d="M27 36.5C25.067 36.5 23.5 38.067 23.5 40V50C23.5 51.933 25.067 53.5 27 53.5H34C35.933 53.5 37.5 51.933 37.5 50V40C37.5 38.067 35.933 36.5 34 36.5H27Z" stroke="#2B2B2B" stroke-width="5"/>
<path d="M9.44516 29L30.5 3.89085L51.5548 29H9.44516ZM53.6208 31.4638C53.6204 31.4633 53.62 31.4628 53.6195 31.4623L53.6208 31.4638Z" stroke="#2B2B2B" stroke-width="5"/>
</svg>
